<?xml version="1.0" standalone="no"?>
<!DOCTYPE svg PUBLIC "-//W3C//DTD SVG 20010904//EN"
 "http://www.w3.org/TR/2001/REC-SVG-20010904/DTD/svg10.dtd">
<svg version="1.0" xmlns="http://www.w3.org/2000/svg"
 width="1828.000000pt" height="1828.000000pt" viewBox="0 0 1828.000000 1828.000000"
 preserveAspectRatio="xMidYMid meet">
<metadata>
Created by potrace 1.14, written by Peter Selinger 2001-2017
</metadata>
<g transform="translate(0.000000,1828.000000) scale(0.100000,-0.100000)"
fill="#000000" stroke="none">
<path d="M14490 10720 l0 -280 340 0 340 0 0 280 0 280 -340 0 -340 0 0 -280z"/>
<path d="M15800 10425 l0 -375 -205 0 -205 0 0 -230 0 -230 205 0 205 0 0
-774 c0 -866 0 -872 66 -996 83 -158 232 -241 487 -271 103 -12 562 -7 605 6
l22 7 0 264 0 263 -32 -7 c-58 -12 -280 -8 -331 7 -54 16 -99 61 -118 118 -10
29 -14 207 -16 711 l-4 672 250 0 251 0 0 230 0 230 -250 0 -250 0 0 375 0
375 -340 0 -340 0 0 -375z"/>
<path d="M1445 10109 c-553 -57 -948 -422 -1065 -983 -139 -662 120 -1264 647
-1508 334 -154 792 -159 1134 -13 346 148 556 438 633 873 l6 32 -330 0 -330
0 -5 -27 c-66 -315 -244 -472 -535 -473 -153 0 -261 42 -359 141 -139 140
-211 360 -211 644 0 294 71 506 220 656 110 111 203 149 365 149 157 -1 280
-44 361 -129 61 -63 89 -114 118 -212 l24 -84 332 -3 333 -2 -6 73 c-23 264
-183 521 -422 676 -235 152 -580 224 -910 190z"/>
<path d="M4130 10110 c-433 -46 -779 -270 -963 -627 -234 -454 -200 -1098 79
-1490 170 -239 415 -394 729 -464 132 -29 404 -37 553 -15 356 53 639 217 826
479 279 392 313 1036 79 1490 -169 328 -476 545 -863 611 -117 20 -327 28
-440 16z m375 -540 c217 -82 343 -268 386 -569 19 -136 7 -404 -24 -523 -59
-226 -182 -375 -362 -439 -84 -29 -264 -37 -359 -15 -205 48 -348 205 -413
454 -21 80 -26 128 -30 269 -11 343 48 544 202 699 119 120 218 156 415 150
100 -3 137 -8 185 -26z"/>
<path d="M7245 10110 c-249 -35 -453 -158 -617 -370 l-27 -35 -1 173 0 172
-325 0 -325 0 0 -1245 0 -1245 345 0 344 0 3 808 c3 802 3 807 25 872 76 223
263 353 484 336 197 -16 292 -91 340 -272 21 -77 22 -101 26 -911 l5 -833 339
0 338 0 3 798 c4 785 4 798 26 875 42 152 119 255 228 306 71 34 188 47 283
34 180 -27 275 -116 318 -299 13 -60 16 -182 20 -891 l5 -823 339 0 339 0 0
883 c0 942 -2 984 -50 1142 -60 195 -193 353 -365 435 -139 66 -388 109 -559
95 -177 -14 -306 -61 -443 -164 -73 -55 -187 -165 -227 -221 -10 -14 -20 -20
-22 -14 -2 5 -21 39 -42 74 -117 201 -338 313 -642 325 -58 2 -132 0 -165 -5z"/>
<path d="M11505 10109 c-141 -19 -273 -71 -390 -154 -59 -42 -181 -162 -223
-220 l-21 -30 -1 173 0 172 -325 0 -325 0 0 -1245 0 -1245 345 0 345 0 0 783
c0 854 1 860 58 973 89 175 226 259 422 258 135 0 199 -22 271 -94 62 -61 91
-122 109 -232 6 -39 10 -371 10 -875 l0 -813 345 0 345 0 0 763 c0 795 3 862
45 977 37 103 124 203 209 241 73 32 184 44 280 31 167 -22 257 -98 312 -262
17 -51 19 -112 22 -902 l3 -848 344 0 345 0 0 858 c0 849 -5 982 -35 1106 -72
287 -261 480 -540 551 -253 64 -501 54 -688 -29 -113 -50 -261 -166 -348 -273
l-52 -64 -30 53 c-101 178 -223 268 -440 323 -111 28 -285 39 -392 24z"/>
<path d="M14490 8805 l0 -1245 340 0 340 0 0 1245 0 1245 -340 0 -340 0 0
-1245z"/>
</g>
</svg>
