<svg width="4500" height="3375" viewBox="0 0 4500 3375" fill="none" xmlns="http://www.w3.org/2000/svg">
<ellipse cx="1948.5" cy="3085" rx="1290.5" ry="91" fill="#B6E2FF"/>
<path fill-rule="evenodd" clip-rule="evenodd" d="M1730 2321C1724.48 2321 1720 2325.48 1720 2331V2368C1720 2373.52 1724.48 2378 1730 2378H2409V3075C2409 3080.52 2413.48 3085 2419 3085H2448C2453.52 3085 2458 3080.52 2458 3075V2378H2693C2698.52 2378 2703 2373.52 2703 2368V2331C2703 2325.48 2698.52 2321 2693 2321H1730Z" fill="#FF4141"/>
<path fill-rule="evenodd" clip-rule="evenodd" d="M1125.31 2089.16C1124.71 2086.8 1124.99 2084.3 1126.11 2082.14L1140.86 2053.45C1141.85 2051.54 1143.42 2049.99 1145.36 2049.04L1163.68 2040.08C1164.48 2039.7 1165.32 2039.42 1166.18 2039.25L1218.44 2029.18C1219.06 2029.06 1219.7 2029 1220.33 2029H1264.74C1267.09 2029 1269.36 2029.83 1271.17 2031.33L1304.11 2058.94C1304.95 2059.64 1305.67 2060.48 1306.24 2061.41L1320.16 2084.32C1320.64 2085.1 1321 2085.95 1321.25 2086.82L1394.51 2348.68C1394.75 2349.56 1394.88 2350.46 1394.88 2351.37V2411.56C1394.88 2414.39 1396.07 2417.08 1398.17 2418.98L1404.46 2424.67C1405.07 2425.22 1405.75 2425.7 1406.48 2426.08L1416.95 2431.65C1419.74 2433.13 1421.66 2435.84 1422.14 2438.96L1428.38 2479.5L1435.41 2508.09C1435.72 2509.35 1436.27 2510.54 1437.04 2511.59L1460.24 2543.44C1460.99 2544.47 1461.93 2545.35 1463.02 2546.03L1505.44 2572.6C1506.39 2573.2 1507.44 2573.63 1508.53 2573.88L1556.17 2584.72C1556.97 2584.91 1557.8 2584.99 1558.62 2584.97L1781.61 2579.77C1787.77 2579.63 1792.6 2585.05 1791.74 2591.16L1789.81 2604.93C1789.53 2606.93 1788.65 2608.8 1787.29 2610.29L1776.3 2622.3C1774.44 2624.34 1771.81 2625.52 1769.05 2625.55L1626.7 2627.35L1748.2 3062.85C1749.68 3068.17 1746.57 3073.69 1741.25 3075.17L1739.32 3075.71C1734 3077.19 1728.49 3074.08 1727.01 3068.76L1603.94 2627.64L1535.88 2628.5L1377.68 2626.52L1380.89 2627.41L1257.75 3068.76C1256.26 3074.08 1250.75 3077.19 1245.43 3075.7L1243.5 3075.17C1238.18 3073.68 1235.07 3068.17 1236.56 3062.85L1358.37 2626.28L1298.28 2625.52C1297.02 2625.51 1295.78 2625.26 1294.62 2624.78L1276.55 2617.39C1275.12 2616.8 1273.85 2615.9 1272.83 2614.74L1253.97 2593.31C1252.93 2592.12 1252.18 2590.7 1251.79 2589.16L1125.31 2089.16Z" fill="#FF4141"/>
<path d="M1065 2775H751L799.942 3029.89C800.846 3034.6 804.967 3038 809.763 3038H1015.5L1065 2775Z" fill="url(#paint0_linear_1115_53)"/>
<path d="M899 2703L889.5 2770V2773.5H876L872.5 2755.5L851.5 2705.5C850.5 2704.67 845.5 2699.5 833.5 2685.5C821.5 2671.5 794.167 2663.67 782 2661.5L715.5 2646.5L672 2622.5C670.333 2621 664 2615.1 652 2603.5C640 2591.9 627.667 2562.67 623 2549.5L614.5 2500.5C632.167 2500.17 672.9 2500.2 694.5 2503C716.1 2505.8 755.5 2526.17 772.5 2536C782.167 2545.5 803.2 2566.2 810 2573C817.2 2578.2 838.667 2622.17 848.5 2643.5L867 2699.5L882 2751V2622.5L884 2573L895.5 2525.5L920.5 2477.5L948 2450L1025 2413L1031.5 2455C1032.83 2467 1035.5 2494.9 1035.5 2510.5C1035.5 2526.1 1025.83 2544 1021 2551L988.5 2592L936.5 2631.5C929.833 2640.17 915 2660.2 909 2671C903 2681.8 899.833 2696.83 899 2703Z" fill="url(#paint1_linear_1115_53)"/>
<rect x="885" y="582" width="601" height="924" rx="35" fill="#82CDFF"/>
<rect x="885" y="582" width="601" height="924" rx="35" fill="#82CDFF"/>
<rect x="945" y="662" width="460" height="159" rx="35" fill="white"/>
<rect x="939" y="865" width="460" height="159" rx="35" fill="white"/>
<rect x="939" y="1073" width="460" height="159" rx="35" fill="white"/>
<rect x="939" y="1281" width="460" height="159" rx="35" fill="white"/>
<rect x="1845" y="572" width="601" height="537" rx="35" fill="#82CDFF"/>
<rect x="1845" y="572" width="601" height="537" rx="35" fill="#82CDFF"/>
<rect x="1913" y="655" width="460" height="159" rx="35" fill="white"/>
<rect x="1913" y="863" width="460" height="159" rx="35" fill="white"/>
<rect x="2855" y="302" width="601" height="1138" rx="35" fill="#82CDFF"/>
<rect x="2855" y="302" width="601" height="1138" rx="35" fill="#82CDFF"/>
<rect x="2922" y="383" width="460" height="159" rx="35" fill="white"/>
<rect x="2922" y="591" width="460" height="159" rx="35" fill="white"/>
<rect x="2922" y="799" width="460" height="159" rx="35" fill="white"/>
<rect x="2922" y="1007" width="460" height="159" rx="35" fill="white"/>
<rect x="2922" y="1215" width="460" height="159" rx="35" fill="white"/>
<path fill-rule="evenodd" clip-rule="evenodd" d="M1625 747.5V1377H1620V1377H1485V1372H1620V741.998H1625V742.5H1845.01V747.5H1625Z" fill="#5EB3EC"/>
<path fill-rule="evenodd" clip-rule="evenodd" d="M2611 482H2852V477H2608V482H2606V934H2447.98V939H2606H2611H2611.02V934H2611V482Z" fill="#5EB3EC"/>
<path d="M1571.5 2434.74L1425 2438.24C1413.8 2438.51 1403.67 2429.35 1400 2424.74V2407.74C1400.33 2396.07 1402.4 2367.54 1408 2346.74C1413.6 2325.94 1429 2249.07 1436 2213.24L1470.5 2090.24L1502.5 2001.24L1547.5 1922.74L1590 1870.24C1604.17 1860.74 1635 1840.74 1645 1836.74C1657.5 1831.74 1682.5 1823.24 1700.5 1823.24C1733 1819.24 1763 1866.24 1775 1874.74C1784.6 1881.54 1816.67 1964.24 1831.5 2004.74C1846.67 2061.74 1877.9 2178.14 1881.5 2187.74C1885.1 2197.34 1895 2197.74 1899.5 2196.74L2055 2190.74L2059.5 2196.74L2065.5 2244.74L2059.5 2256.24L1937 2283.24C1919.67 2285.91 1876.3 2292.54 1841.5 2297.74C1806.7 2302.94 1778.67 2243.57 1769 2213.24L1719.5 2329.74L1715.5 2397.74C1715.83 2402.74 1714.8 2414.44 1708 2421.24C1701.2 2428.04 1614.17 2433.07 1571.5 2434.74Z" fill="#1E57D2"/>
<path d="M1703 2417.5C1577.4 2436.3 1463.33 2436.67 1422 2434.5H1419C1419.17 2441.33 1420 2458.7 1422 2473.5C1424 2488.3 1431.5 2505.67 1435 2512.5C1439.5 2519.83 1454 2539.7 1476 2560.5C1492.8 2581.7 1559 2585.33 1590 2584.5H1703L1855.5 2573L1837 2931.5L1921.5 2941L1936.5 2931.5L1983 2690.5C2017.5 2756 2091.1 2894.4 2109.5 2924C2146.7 2920.8 2185.67 2895.33 2200.5 2883C2146 2736.5 2034.6 2439.5 2025 2423.5C2013 2403.5 1970.5 2398 1971.5 2398C1972.3 2398 1802.17 2392.67 1717 2390C1716 2391.17 1713.5 2395.3 1711.5 2402.5C1709 2411.5 1709.5 2412 1703 2417.5Z" fill="#051851"/>
<path d="M2321 1960.5H2427C2389 2051.33 2311.1 2238.7 2303.5 2261.5C2295.9 2284.3 2283.33 2295.67 2278 2298.5C2182.17 2298.17 1985.6 2297.7 1966 2298.5C1941.5 2299.5 1949 2298 1944.5 2290C1939.3 2281.6 1954.33 2278.83 1962.5 2278.5C2020.83 2280.83 2140.6 2284.1 2153 2278.5C2165.4 2272.9 2172.83 2257.17 2175 2250C2209.33 2165.33 2280.1 1992 2288.5 1976C2296.9 1960 2313.67 1959 2321 1960.5Z" fill="#B8B7B7"/>
<path d="M1926.5 2988.02L1850 2976.52L1865 2934.52L1926.5 2943.02V2988.02Z" fill="#FFE3C9"/>
<path d="M2149 2988.02L2124.5 2925.02L2179.5 2900.02V2905.02C2179.5 2912.22 2204.17 2940.69 2216.5 2954.02L2149 2988.02Z" fill="#FFE3C9"/>
<path d="M1774.5 1868.52L1708 1806.02L1754 1749.52L1797 1730.52L1790 1697.02C1789 1694.52 1789 1687.62 1797 1680.02C1807 1670.52 1817.5 1688.52 1825 1700.02C1840.5 1701.02 1861.5 1650.02 1861.5 1649.02C1861.5 1648.22 1918.17 1671.02 1946.5 1682.52L1940 1767.02L1936 1773.02C1928.83 1782.02 1909 1805.02 1887 1825.02C1855 1844.02 1825 1812.02 1825 1819.02C1825 1824.62 1791.33 1854.35 1774.5 1868.52Z" fill="#FFE3C9"/>
<path d="M2066 2253L2062 2191.5H2085.5H2110L2132.5 2201L2151 2215C2154.33 2220.5 2162.6 2234.2 2169 2245C2175.4 2255.8 2166.33 2268.5 2161 2273.5L2156 2263.25L2145.5 2276V2273.5L2142.5 2268L2117.5 2250.5L2140.5 2254.5L2144.69 2256.87L2142.5 2253L2110 2245H2098L2090.5 2246.88C2090 2249.88 2087.1 2264.3 2071.5 2273.5C2055.9 2282.7 2036.17 2269.17 2028.5 2263.5L2090.5 2246.88L2066 2253Z" fill="#F8E9DB"/>
<path d="M1795.5 1732.5L1752 1750L1754 1609.5C1753.83 1608.67 1755.4 1603 1763 1587C1770.6 1571 1784.17 1564.33 1790 1563L1828 1561.5C1829.67 1560.83 1835.1 1557.7 1843.5 1550.5C1869.9 1535.7 1895.17 1544.33 1904.5 1550.5C1930.83 1567.17 1987.1 1602.3 2001.5 1609.5C2015.9 1616.7 2040.5 1612.5 2051 1609.5C2051.33 1622 2047.1 1651.2 2027.5 1668C2007.9 1684.8 1964.33 1683 1945 1680L1860 1647L1847 1674.5L1837 1692L1822.5 1700C1822.67 1699.67 1821.5 1696.4 1815.5 1686C1808 1673 1804 1678 1795.5 1680C1787.5 1680.4 1788.5 1699.17 1790 1708.5L1795.5 1732.5Z" fill="#646161"/>
<path d="M1835.41 3029.5L1849.41 2980L1926.42 2988.5C1943.42 2999 1980.82 3021.6 1994.42 3028C2009.42 3026 2073.92 3064.5 2063.92 3072.5C2055.92 3078.9 2042.25 3079.17 2036.42 3078.5L1922.92 3064.5C1904.42 3061.83 1863.21 3056.2 1846.41 3055C1829.61 3053.8 1832.08 3037.5 1835.41 3029.5Z" fill="#937171"/>
<path d="M2166.54 3037.77L2149.6 2989.2L2217.54 2951.97C2237.49 2950.82 2281.09 2947.86 2295.9 2945.3C2307.03 2935.05 2381.95 2929.57 2378.35 2941.86C2375.47 2951.69 2364.43 2959.75 2359.27 2962.55L2258.29 3016.22C2241.61 3024.66 2204.63 3043.69 2190.19 3052.34C2175.74 3061 2168.41 3046.24 2166.54 3037.77Z" fill="#937171"/>
<ellipse cx="2310.92" cy="2086.96" rx="13" ry="31.5" transform="rotate(17.6191 2310.92 2086.96)" fill="#D9D9D9"/>
<defs>
<linearGradient id="paint0_linear_1115_53" x1="839.75" y1="2413" x2="839.75" y2="3038" gradientUnits="userSpaceOnUse">
<stop offset="0.574313" stop-color="#A5FC2C"/>
<stop offset="0.580618" stop-color="#3F630B"/>
</linearGradient>
<linearGradient id="paint1_linear_1115_53" x1="839.75" y1="2413" x2="839.75" y2="3038" gradientUnits="userSpaceOnUse">
<stop offset="0.574313" stop-color="#A5FC2C"/>
<stop offset="0.580618" stop-color="#3F630B"/>
</linearGradient>
</defs>
</svg>
